<mxfile host="drawio-plugin" modified="2022-10-25T22:15:22.088Z" agent="5.0 (Windows NT 6.2; Win64; x64) AppleWebKit/537.36 (KHTML, like Gecko) Chrome/98.0.4758.102 Safari/537.36" etag="MCduEMepmQGF6oEpsrbI" version="15.5.4" type="embed"><diagram id="23iRSUPoRavnBvh4doch" name="Page-1"><mxGraphModel dx="1220" dy="374" grid="1" gridSize="10" guides="1" tooltips="1" connect="1" arrows="1" fold="1" page="1" pageScale="1" pageWidth="827" pageHeight="1169" math="0" shadow="0"><root><mxCell id="0"/><mxCell id="1" parent="0"/><mxCell id="2" value="s:ScrabbleModel" style="html=1;" parent="1" vertex="1"><mxGeometry y="70" width="110" height="50" as="geometry"/></mxCell><mxCell id="4" value="Letters are placed" style="ellipse;whiteSpace=wrap;html=1;" parent="1" vertex="1"><mxGeometry width="110" height="50" as="geometry"/></mxCell><mxCell id="6" value="" style="shape=umlLifeline;participant=umlEntity;perimeter=lifelinePerimeter;whiteSpace=wrap;html=1;container=1;collapsible=0;recursiveResize=0;verticalAlign=top;spacingTop=36;outlineConnect=0;size=0;" parent="1" vertex="1"><mxGeometry x="35" y="120" width="40" height="430" as="geometry"/></mxCell><mxCell id="16" value="" style="html=1;points=[];perimeter=orthogonalPerimeter;" parent="6" vertex="1"><mxGeometry x="15" y="40" width="10" height="270" as="geometry"/></mxCell><mxCell id="17" value="nextTurn()" style="edgeStyle=orthogonalEdgeStyle;html=1;align=left;spacingLeft=2;endArrow=block;rounded=0;entryX=1;entryY=0;" parent="6" target="16" edge="1"><mxGeometry relative="1" as="geometry"><mxPoint x="20" y="20" as="sourcePoint"/><Array as="points"><mxPoint x="50" y="20"/></Array></mxGeometry></mxCell><mxCell id="19" value="handlePlace(Player)" style="html=1;verticalAlign=bottom;endArrow=block;rounded=0;" parent="6" source="16" edge="1"><mxGeometry x="0.0526" y="40" relative="1" as="geometry"><mxPoint x="55" y="50" as="sourcePoint"/><mxPoint x="25" y="106" as="targetPoint"/><Array as="points"><mxPoint x="55" y="90"/><mxPoint x="55" y="106"/></Array><mxPoint as="offset"/></mxGeometry></mxCell><mxCell id="11" value="p:Player" style="shape=umlLifeline;perimeter=lifelinePerimeter;whiteSpace=wrap;html=1;container=1;collapsible=0;recursiveResize=0;outlineConnect=0;" parent="1" vertex="1"><mxGeometry x="350" y="60" width="100" height="510" as="geometry"/></mxCell><mxCell id="18" value="" style="html=1;points=[];perimeter=orthogonalPerimeter;" parent="11" vertex="1"><mxGeometry x="45" y="270" width="10" height="60" as="geometry"/></mxCell><mxCell id="39" value="" style="html=1;points=[];perimeter=orthogonalPerimeter;" parent="11" vertex="1"><mxGeometry x="45" y="330" width="10" height="140" as="geometry"/></mxCell><mxCell id="41" value="h:hand" style="shape=umlLifeline;perimeter=lifelinePerimeter;whiteSpace=wrap;html=1;container=1;collapsible=0;recursiveResize=0;outlineConnect=0;" parent="1" vertex="1"><mxGeometry x="520" y="60" width="100" height="490" as="geometry"/></mxCell><mxCell id="45" value="" style="html=1;points=[];perimeter=orthogonalPerimeter;" parent="41" vertex="1"><mxGeometry x="45" y="410" width="10" height="40" as="geometry"/></mxCell><mxCell id="46" value="fillHand()" style="edgeStyle=orthogonalEdgeStyle;html=1;align=left;spacingLeft=2;endArrow=block;rounded=0;entryX=1;entryY=0;" parent="41" target="45" edge="1"><mxGeometry relative="1" as="geometry"><mxPoint x="50" y="340" as="sourcePoint"/><Array as="points"><mxPoint x="50" y="390"/><mxPoint x="85" y="390"/><mxPoint x="85" y="410"/></Array></mxGeometry></mxCell><mxCell id="48" value="" style="html=1;points=[];perimeter=orthogonalPerimeter;" parent="41" vertex="1"><mxGeometry x="45" y="370" width="10" height="40" as="geometry"/></mxCell><mxCell id="50" value="useLetters(List&amp;lt;Letter&amp;gt;)" style="html=1;verticalAlign=bottom;endArrow=block;rounded=0;" parent="1" source="11" target="48" edge="1"><mxGeometry x="0.2088" width="80" relative="1" as="geometry"><mxPoint x="240" y="370" as="sourcePoint"/><mxPoint x="320" y="370" as="targetPoint"/><mxPoint as="offset"/><Array as="points"><mxPoint x="460" y="460"/></Array></mxGeometry></mxCell><mxCell id="57" value="t:TextController" style="html=1;" parent="1" vertex="1"><mxGeometry x="230" y="60" width="110" height="40" as="geometry"/></mxCell><mxCell id="58" value="" style="shape=umlLifeline;participant=umlEntity;perimeter=lifelinePerimeter;whiteSpace=wrap;html=1;container=1;collapsible=0;recursiveResize=0;verticalAlign=top;spacingTop=36;outlineConnect=0;size=0;" parent="1" vertex="1"><mxGeometry x="265" y="100" width="40" height="430" as="geometry"/></mxCell><mxCell id="60" value="" style="html=1;points=[];perimeter=orthogonalPerimeter;" parent="58" vertex="1"><mxGeometry x="15" y="60" width="10" height="30" as="geometry"/></mxCell><mxCell id="63" value="" style="html=1;points=[];perimeter=orthogonalPerimeter;" parent="58" vertex="1"><mxGeometry x="15" y="140" width="10" height="30" as="geometry"/></mxCell><mxCell id="66" value="" style="html=1;points=[];perimeter=orthogonalPerimeter;" parent="58" vertex="1"><mxGeometry x="15" y="190" width="10" height="30" as="geometry"/></mxCell><mxCell id="61" value="getAction()" style="html=1;verticalAlign=bottom;endArrow=block;entryX=1;entryY=0;rounded=0;" parent="1" source="6" target="60" edge="1"><mxGeometry x="0.2565" relative="1" as="geometry"><mxPoint x="330" y="170" as="sourcePoint"/><mxPoint as="offset"/></mxGeometry></mxCell><mxCell id="62" value="boolean" style="html=1;verticalAlign=bottom;endArrow=open;dashed=1;endSize=8;rounded=0;entryX=1.133;entryY=0.14;entryDx=0;entryDy=0;entryPerimeter=0;" parent="1" source="58" target="16" edge="1"><mxGeometry relative="1" as="geometry"><mxPoint x="330" y="227" as="targetPoint"/><Array as="points"><mxPoint x="210" y="200"/></Array></mxGeometry></mxCell><mxCell id="65" value="List&amp;lt;Letter&amp;gt;" style="html=1;verticalAlign=bottom;endArrow=open;dashed=1;endSize=8;exitX=1;exitY=0.95;rounded=0;" parent="1" source="63" target="6" edge="1"><mxGeometry x="0.0224" relative="1" as="geometry"><mxPoint x="330" y="297" as="targetPoint"/><mxPoint as="offset"/></mxGeometry></mxCell><mxCell id="64" value="askForWord()" style="html=1;verticalAlign=bottom;endArrow=block;entryX=1;entryY=0;rounded=0;" parent="1" source="6" target="63" edge="1"><mxGeometry relative="1" as="geometry"><mxPoint x="330" y="240" as="sourcePoint"/></mxGeometry></mxCell><mxCell id="68" value="String" style="html=1;verticalAlign=bottom;endArrow=open;dashed=1;endSize=8;exitX=1;exitY=0.95;rounded=0;" parent="1" source="66" target="6" edge="1"><mxGeometry relative="1" as="geometry"><mxPoint x="330" y="347" as="targetPoint"/></mxGeometry></mxCell><mxCell id="67" value="askForCoord()" style="html=1;verticalAlign=bottom;endArrow=block;entryX=1;entryY=0;rounded=0;exitX=1.038;exitY=0.485;exitDx=0;exitDy=0;exitPerimeter=0;" parent="1" source="16" target="66" edge="1"><mxGeometry relative="1" as="geometry"><mxPoint x="330" y="290" as="sourcePoint"/></mxGeometry></mxCell><mxCell id="74" value="validateInput(String, List&amp;lt;Letter&amp;gt;, Player))" style="html=1;verticalAlign=bottom;endArrow=block;rounded=0;entryX=1.107;entryY=0.738;entryDx=0;entryDy=0;entryPerimeter=0;" parent="1" target="16" edge="1"><mxGeometry x="-0.1914" y="70" width="80" relative="1" as="geometry"><mxPoint x="60" y="340" as="sourcePoint"/><mxPoint x="70" y="360" as="targetPoint"/><Array as="points"><mxPoint x="100" y="340"/><mxPoint x="100" y="360"/></Array><mxPoint as="offset"/></mxGeometry></mxCell><mxCell id="75" value="placeLetters(List&amp;lt;Letter&amp;gt;)" style="html=1;verticalAlign=bottom;endArrow=block;rounded=0;" parent="1" edge="1" target="11" source="6"><mxGeometry x="0.25" width="80" relative="1" as="geometry"><mxPoint x="390" y="400" as="sourcePoint"/><mxPoint x="170" y="400" as="targetPoint"/><Array as="points"><mxPoint x="360" y="380"/></Array><mxPoint as="offset"/></mxGeometry></mxCell></root></mxGraphModel></diagram></mxfile>